<?xml version="1.0" encoding="utf-8"?>
<!-- Generator: Adobe Illustrator 17.0.2, SVG Export Plug-In . SVG Version: 6.00 Build 0)  -->
<!DOCTYPE svg PUBLIC "-//W3C//DTD SVG 1.1//EN" "http://www.w3.org/Graphics/SVG/1.1/DTD/svg11.dtd">
<svg version="1.1" id="Layer_1" xmlns="http://www.w3.org/2000/svg" xmlns:xlink="http://www.w3.org/1999/xlink" x="0px" y="0px"
	 width="100px" height="100px" viewBox="0 0 100 100" enable-background="new 0 0 100 100" xml:space="preserve">
<path fill="#FFFFFF" d="M12.5,100h75l9.723-43.75H2.777L12.5,100z M75,71.875c0-1.727,1.398-3.125,3.125-3.125
	s3.125,1.398,3.125,3.125v18.75c0,1.727-1.398,3.125-3.125,3.125S75,92.352,75,90.625V71.875z M56.25,71.875
	c0-1.727,1.398-3.125,3.125-3.125s3.125,1.398,3.125,3.125v18.75c0,1.727-1.398,3.125-3.125,3.125s-3.125-1.398-3.125-3.125V71.875z
	 M37.5,71.875c0-1.727,1.398-3.125,3.125-3.125s3.125,1.398,3.125,3.125v18.75c0,1.727-1.398,3.125-3.125,3.125
	S37.5,92.352,37.5,90.625V71.875z M18.75,71.875c0-1.727,1.398-3.125,3.125-3.125S25,70.148,25,71.875v18.75
	c0,1.727-1.398,3.125-3.125,3.125s-3.125-1.398-3.125-3.125V71.875z M91.736,43.75l0.177-0.195L58.63,13.043
	c0.476-1.129,0.745-2.362,0.745-3.668C59.375,4.199,55.176,0,50,0c-5.179,0-9.375,4.199-9.375,9.375
	c0,1.306,0.269,2.539,0.748,3.668L8.084,43.555l0.177,0.195H0L1.388,50h97.22L100,43.75H91.736z M17.127,43.75L45.63,17.621
	c1.309,0.702,2.783,1.129,4.37,1.129s3.058-0.433,4.37-1.129L82.874,43.75H17.127z"/>
</svg>
